<?xml version="1.0" encoding="UTF-8" standalone="no"?>
<!-- Created with Inkscape (http://www.inkscape.org/) -->

<svg
   width="66.703156pc"
   height="15.609833pc"
   viewBox="0 0 282.37668 66.081626"
   version="1.1"
   id="svg1"
   xml:space="preserve"
   xmlns="http://www.w3.org/2000/svg"
   xmlns:svg="http://www.w3.org/2000/svg"><defs
     id="defs1" /><g
     id="layer1"
     transform="translate(-25.264592,-70.283356)"><g
       id="g11"
       transform="translate(7.29e-6,1.3649846)"><text
         xml:space="preserve"
         style="font-size:25.4px;font-family:OpenSymbol;-inkscape-font-specification:OpenSymbol;text-align:start;writing-mode:lr-tb;direction:ltr;text-anchor:start;fill:#0a083b;fill-opacity:1;stroke-width:0.264583"
         x="103.3236"
         y="121.53799"
         id="text1"><tspan
           id="tspan1"
           style="font-style:normal;font-variant:normal;font-weight:bold;font-stretch:normal;font-size:50.8px;font-family:Poppins;-inkscape-font-specification:'Poppins Bold';fill:#0a083b;fill-opacity:1;stroke-width:0.264583"
           x="103.3236"
           y="121.53799">Classly.</tspan></text><g
         id="g10"
         transform="translate(0.33830771,2.2683847)"><path
           style="fill:#1768ac;fill-opacity:1;stroke-width:0.254976"
           id="rect3"
           width="64.735413"
           height="62.764"
           x="24.926277"
           y="69.967613"
           ry="0"
           rx="0"
           d="M 34.999999,69.967613 H 79.629304 A 10.032386,10.032386 45 0 1 89.66169,79.999999 v 43.069921 a 9.661692,9.661692 135 0 1 -9.661692,9.66169 H 34.999999 A 10.073722,10.073722 45 0 1 24.926277,122.65789 V 80.041335 A 10.073722,10.073722 135 0 1 34.999999,69.967613 Z" /><path
           id="rect5"
           style="fill:#ecebe4;fill-opacity:1;stroke-width:0.351794"
           d="m 39.335136,66.649987 c -2.401699,0 -4.336091,1.479646 -4.335138,3.317626 l 0.01447,27.898472 c 3.9e-5,0.0753 -0.0064,-0.07402 0,0 l 10.186064,-7.31415 9.932083,7.336021 3e-6,-27.920343 c 0,-1.83798 -1.933439,-3.317626 -4.335135,-3.317626 z" /></g></g></g></svg>
